<mxfile host="Electron" modified="2024-12-20T15:38:43.685Z" agent="Mozilla/5.0 (Windows NT 10.0; Win64; x64) AppleWebKit/537.36 (KHTML, like Gecko) draw.io/24.0.4 Chrome/120.0.6099.109 Electron/28.1.0 Safari/537.36" etag="s7U_yU0gNg4_QlaEDRwr" version="24.0.4" type="device">
  <diagram name="Страница — 1" id="x9qaQMmm9OGckELRyV14">
    <mxGraphModel dx="989" dy="582" grid="1" gridSize="10" guides="1" tooltips="1" connect="1" arrows="1" fold="1" page="1" pageScale="1" pageWidth="827" pageHeight="1169" math="0" shadow="0">
      <root>
        <mxCell id="0" />
        <mxCell id="1" parent="0" />
        <mxCell id="5ubf0w2Y3WYCWurfc1oN-1" value="Пользоваетль" style="shape=umlActor;verticalLabelPosition=bottom;verticalAlign=top;html=1;outlineConnect=0;" vertex="1" parent="1">
          <mxGeometry x="130" y="360" width="30" height="60" as="geometry" />
        </mxCell>
        <mxCell id="5ubf0w2Y3WYCWurfc1oN-2" value="" style="endArrow=none;html=1;rounded=0;entryX=1;entryY=0.5;entryDx=0;entryDy=0;" edge="1" parent="1" target="5ubf0w2Y3WYCWurfc1oN-10">
          <mxGeometry width="50" height="50" relative="1" as="geometry">
            <mxPoint x="170" y="400" as="sourcePoint" />
            <mxPoint x="850" y="400" as="targetPoint" />
          </mxGeometry>
        </mxCell>
        <mxCell id="5ubf0w2Y3WYCWurfc1oN-3" value="" style="ellipse;html=1;" vertex="1" parent="1">
          <mxGeometry x="200" y="370" width="20" height="20" as="geometry" />
        </mxCell>
        <mxCell id="5ubf0w2Y3WYCWurfc1oN-4" value="" style="endArrow=open;html=1;rounded=0;align=center;verticalAlign=top;endFill=0;labelBackgroundColor=none;endSize=6;" edge="1" source="5ubf0w2Y3WYCWurfc1oN-3" parent="1">
          <mxGeometry relative="1" as="geometry">
            <mxPoint x="240" y="380" as="targetPoint" />
          </mxGeometry>
        </mxCell>
        <mxCell id="5ubf0w2Y3WYCWurfc1oN-5" value="И1: Интерфейс электронного журнала" style="rounded=0;whiteSpace=wrap;html=1;align=left;" vertex="1" parent="1">
          <mxGeometry x="330" y="370" width="120" height="60" as="geometry" />
        </mxCell>
        <mxCell id="5ubf0w2Y3WYCWurfc1oN-6" value="1. Запуск программы" style="text;html=1;align=center;verticalAlign=middle;whiteSpace=wrap;rounded=0;" vertex="1" parent="1">
          <mxGeometry x="250" y="365" width="60" height="30" as="geometry" />
        </mxCell>
        <mxCell id="5ubf0w2Y3WYCWurfc1oN-7" value="" style="ellipse;html=1;" vertex="1" parent="1">
          <mxGeometry x="470" y="370" width="20" height="20" as="geometry" />
        </mxCell>
        <mxCell id="5ubf0w2Y3WYCWurfc1oN-8" value="" style="endArrow=open;html=1;rounded=0;align=center;verticalAlign=top;endFill=0;labelBackgroundColor=none;endSize=6;" edge="1" parent="1" source="5ubf0w2Y3WYCWurfc1oN-7">
          <mxGeometry relative="1" as="geometry">
            <mxPoint x="510" y="380" as="targetPoint" />
          </mxGeometry>
        </mxCell>
        <mxCell id="5ubf0w2Y3WYCWurfc1oN-9" value="2. Генерация процентов влажности" style="text;html=1;align=center;verticalAlign=middle;whiteSpace=wrap;rounded=0;" vertex="1" parent="1">
          <mxGeometry x="510" y="365" width="130" height="30" as="geometry" />
        </mxCell>
        <mxCell id="5ubf0w2Y3WYCWurfc1oN-10" value="Л1: Запись процентов влажности в лист&amp;nbsp;" style="rounded=0;whiteSpace=wrap;html=1;align=left;" vertex="1" parent="1">
          <mxGeometry x="660" y="370" width="120" height="60" as="geometry" />
        </mxCell>
        <mxCell id="5ubf0w2Y3WYCWurfc1oN-11" value="" style="ellipse;html=1;" vertex="1" parent="1">
          <mxGeometry x="620" y="410" width="20" height="20" as="geometry" />
        </mxCell>
        <mxCell id="5ubf0w2Y3WYCWurfc1oN-12" value="" style="endArrow=open;html=1;rounded=0;align=center;verticalAlign=top;endFill=0;labelBackgroundColor=none;endSize=6;" edge="1" parent="1" source="5ubf0w2Y3WYCWurfc1oN-11">
          <mxGeometry relative="1" as="geometry">
            <mxPoint x="600" y="420" as="targetPoint" />
          </mxGeometry>
        </mxCell>
        <mxCell id="5ubf0w2Y3WYCWurfc1oN-13" value="3. Отрисовка графика по данными" style="text;html=1;align=center;verticalAlign=middle;whiteSpace=wrap;rounded=0;" vertex="1" parent="1">
          <mxGeometry x="470" y="410" width="120" height="30" as="geometry" />
        </mxCell>
        <mxCell id="5ubf0w2Y3WYCWurfc1oN-14" value="" style="ellipse;html=1;" vertex="1" parent="1">
          <mxGeometry x="300" y="410" width="20" height="20" as="geometry" />
        </mxCell>
        <mxCell id="5ubf0w2Y3WYCWurfc1oN-15" value="" style="endArrow=open;html=1;rounded=0;align=center;verticalAlign=top;endFill=0;labelBackgroundColor=none;endSize=6;" edge="1" parent="1" source="5ubf0w2Y3WYCWurfc1oN-14">
          <mxGeometry relative="1" as="geometry">
            <mxPoint x="280" y="420" as="targetPoint" />
          </mxGeometry>
        </mxCell>
        <mxCell id="5ubf0w2Y3WYCWurfc1oN-16" value="4. Получение результата" style="text;html=1;align=center;verticalAlign=middle;whiteSpace=wrap;rounded=0;" vertex="1" parent="1">
          <mxGeometry x="190" y="410" width="80" height="30" as="geometry" />
        </mxCell>
      </root>
    </mxGraphModel>
  </diagram>
</mxfile>
